<svg width="13" height="13" viewBox="0 0 13 13" fill="none" xmlns="http://www.w3.org/2000/svg">
<path d="M6.49365 0.5C7.33037 0.5 8.04019 0.518962 8.58643 1.00586C9.1304 1.49074 9.63721 2.56728 9.63721 5.06055C9.63721 6.02487 9.19728 6.91732 8.56006 7.5752C7.91455 8.24158 7.12539 8.60938 6.49365 8.60938C5.86191 8.60937 5.07275 8.24157 4.42725 7.5752C3.79002 6.91732 3.3501 6.02487 3.3501 5.06055C3.3501 2.56729 3.85691 1.49075 4.40088 1.00586C4.94712 0.518963 5.65694 0.5 6.49365 0.5Z" stroke="#D90000"/>
<path d="M10.6094 3.5V11.1094C10.6091 11.3851 10.3851 11.6091 10.1094 11.6094H3C2.72401 11.6094 2.50025 11.3853 2.5 11.1094V3.5H10.6094Z" fill="white" stroke="#D90000"/>
<line x1="0.5" y1="3.5" x2="12.2525" y2="3.5" stroke="#D90000" stroke-linecap="round"/>
</svg>
