<svg width="28" height="27" viewBox="0 0 28 27" fill="none" xmlns="http://www.w3.org/2000/svg">
<path d="M10.7916 24.75L10.3249 21.15C10.0721 21.0563 9.83393 20.9438 9.61032 20.8125C9.38671 20.6812 9.16796 20.5406 8.95407 20.3906L5.48324 21.7969L2.2749 16.4531L5.27907 14.2594C5.25962 14.1281 5.2499 14.0016 5.2499 13.8797V13.1203C5.2499 12.9984 5.25962 12.8719 5.27907 12.7406L2.2749 10.5469L5.48324 5.20312L8.95407 6.60938C9.16796 6.45937 9.39157 6.31875 9.6249 6.1875C9.85824 6.05625 10.0916 5.94375 10.3249 5.85L10.7916 2.25H17.2082L17.6749 5.85C17.9277 5.94375 18.1659 6.05625 18.3895 6.1875C18.6131 6.31875 18.8318 6.45937 19.0457 6.60938L22.5166 5.20312L25.7249 10.5469L22.7207 12.7406C22.7402 12.8719 22.7499 12.9984 22.7499 13.1203V13.8797C22.7499 14.0016 22.7305 14.1281 22.6916 14.2594L25.6957 16.4531L22.4874 21.7969L19.0457 20.3906C18.8318 20.5406 18.6082 20.6812 18.3749 20.8125C18.1416 20.9438 17.9082 21.0563 17.6749 21.15L17.2082 24.75H10.7916ZM12.8332 22.5H15.1374L15.5457 19.5188C16.1485 19.3688 16.7075 19.1484 17.2228 18.8578C17.7381 18.5672 18.2096 18.2156 18.6374 17.8031L21.5249 18.9563L22.6624 17.0438L20.1541 15.2156C20.2513 14.9531 20.3193 14.6766 20.3582 14.3859C20.3971 14.0953 20.4166 13.8 20.4166 13.5C20.4166 13.2 20.3971 12.9047 20.3582 12.6141C20.3193 12.3234 20.2513 12.0469 20.1541 11.7844L22.6624 9.95625L21.5249 8.04375L18.6374 9.225C18.2096 8.79375 17.7381 8.43281 17.2228 8.14219C16.7075 7.85156 16.1485 7.63125 15.5457 7.48125L15.1666 4.5H12.8624L12.4541 7.48125C11.8513 7.63125 11.2923 7.85156 10.777 8.14219C10.2617 8.43281 9.79018 8.78438 9.3624 9.19688L6.4749 8.04375L5.3374 9.95625L7.84574 11.7562C7.74851 12.0375 7.68046 12.3187 7.64157 12.6C7.60268 12.8812 7.58324 13.1813 7.58324 13.5C7.58324 13.8 7.60268 14.0906 7.64157 14.3719C7.68046 14.6531 7.74851 14.9344 7.84574 15.2156L5.3374 17.0438L6.4749 18.9563L9.3624 17.775C9.79018 18.2063 10.2617 18.5672 10.777 18.8578C11.2923 19.1484 11.8513 19.3688 12.4541 19.5188L12.8332 22.5ZM14.0582 17.4375C15.186 17.4375 16.1485 17.0531 16.9457 16.2844C17.743 15.5156 18.1416 14.5875 18.1416 13.5C18.1416 12.4125 17.743 11.4844 16.9457 10.7156C16.1485 9.94688 15.186 9.5625 14.0582 9.5625C12.911 9.5625 11.9437 9.94688 11.1562 10.7156C10.3687 11.4844 9.9749 12.4125 9.9749 13.5C9.9749 14.5875 10.3687 15.5156 11.1562 16.2844C11.9437 17.0531 12.911 17.4375 14.0582 17.4375Z" fill="#A8A8A8"/>
<circle cx="14" cy="13.5" r="3" fill="white"/>
</svg>
